<svg width="232" height="56" viewBox="0 0 232 56" fill="none" 
  xmlns="http://www.w3.org/2000/svg">
  <path d="M69.1602 22.4727V38H66.4297V22.4727H62.2695V19.9062H73.3086V22.4727H69.1602ZM75.2422 18.207H77.8789V27.5352C78.8164 26.6914 79.8516 26.2695 80.9844 26.2695C82.2734 26.2695 83.3047 26.6875 84.0781 27.5234C84.7344 28.25 85.0625 29.4102 85.0625 31.0039V38H82.4258V31.25C82.4258 30.3359 82.2617 29.6758 81.9336 29.2695C81.6133 28.8555 81.0938 28.6484 80.375 28.6484C79.4531 28.6484 78.8047 28.9336 78.4297 29.5039C78.0625 30.082 77.8789 31.0742 77.8789 32.4805V38H75.2422V18.207ZM98.8086 32.9141H90.6289C90.6992 33.8516 91.0039 34.5977 91.543 35.1523C92.082 35.6992 92.7734 35.9727 93.6172 35.9727C94.2734 35.9727 94.8164 35.8164 95.2461 35.5039C95.668 35.1914 96.1484 34.6133 96.6875 33.7695L98.9141 35.0117C98.5703 35.5977 98.207 36.1016 97.8242 36.5234C97.4414 36.9375 97.0312 37.2812 96.5938 37.5547C96.1562 37.8203 95.6836 38.0156 95.1758 38.1406C94.668 38.2656 94.1172 38.3281 93.5234 38.3281C91.8203 38.3281 90.4531 37.7812 89.4219 36.6875C88.3906 35.5859 87.875 34.125 87.875 32.3047C87.875 30.5 88.375 29.0391 89.375 27.9219C90.3828 26.8203 91.7188 26.2695 93.3828 26.2695C95.0625 26.2695 96.3906 26.8047 97.3672 27.875C98.3359 28.9375 98.8203 30.4102 98.8203 32.293L98.8086 32.9141ZM96.1016 30.7578C95.7344 29.3516 94.8477 28.6484 93.4414 28.6484C93.1211 28.6484 92.8203 28.6992 92.5391 28.8008C92.2578 28.8945 92 29.0352 91.7656 29.2227C91.5391 29.4023 91.3438 29.6211 91.1797 29.8789C91.0156 30.1367 90.8906 30.4297 90.8047 30.7578H96.1016ZM118.918 28.5781H126.395V29.1758C126.395 30.5352 126.234 31.7383 125.914 32.7852C125.602 33.7539 125.074 34.6602 124.332 35.5039C122.652 37.3945 120.516 38.3398 117.922 38.3398C115.391 38.3398 113.223 37.4258 111.418 35.5977C109.613 33.7617 108.711 31.5586 108.711 28.9883C108.711 26.3633 109.629 24.1367 111.465 22.3086C113.301 20.4727 115.535 19.5547 118.168 19.5547C119.582 19.5547 120.902 19.8438 122.129 20.4219C123.301 21 124.453 21.9375 125.586 23.2344L123.641 25.0977C122.156 23.1211 120.348 22.1328 118.215 22.1328C116.301 22.1328 114.695 22.793 113.398 24.1133C112.102 25.4102 111.453 27.0352 111.453 28.9883C111.453 31.0039 112.176 32.6641 113.621 33.9688C114.973 35.1797 116.438 35.7852 118.016 35.7852C119.359 35.7852 120.566 35.332 121.637 34.4258C122.707 33.5117 123.305 32.418 123.43 31.1445H118.918V28.5781ZM131.973 26.5859V38H129.336V26.5859H131.973ZM128.938 21.8398C128.938 21.3789 129.105 20.9805 129.441 20.6445C129.777 20.3086 130.18 20.1406 130.648 20.1406C131.125 20.1406 131.531 20.3086 131.867 20.6445C132.203 20.9727 132.371 21.375 132.371 21.8516C132.371 22.3281 132.203 22.7344 131.867 23.0703C131.539 23.4062 131.137 23.5742 130.66 23.5742C130.184 23.5742 129.777 23.4062 129.441 23.0703C129.105 22.7344 128.938 22.3242 128.938 21.8398ZM136.73 26.5859L139.684 32.9961L142.625 26.5859H145.59L139.66 38.7852L133.777 26.5859H136.73ZM150.02 26.5859V38H147.383V26.5859H150.02ZM146.984 21.8398C146.984 21.3789 147.152 20.9805 147.488 20.6445C147.824 20.3086 148.227 20.1406 148.695 20.1406C149.172 20.1406 149.578 20.3086 149.914 20.6445C150.25 20.9727 150.418 21.375 150.418 21.8516C150.418 22.3281 150.25 22.7344 149.914 23.0703C149.586 23.4062 149.184 23.5742 148.707 23.5742C148.23 23.5742 147.824 23.4062 147.488 23.0703C147.152 22.7344 146.984 22.3242 146.984 21.8398ZM153.359 26.5859H156.008V27.6406C156.93 26.7266 157.969 26.2695 159.125 26.2695C160.453 26.2695 161.488 26.6875 162.23 27.5234C162.871 28.2344 163.191 29.3945 163.191 31.0039V38H160.543V31.625C160.543 30.5 160.387 29.7227 160.074 29.293C159.77 28.8555 159.215 28.6367 158.41 28.6367C157.535 28.6367 156.914 28.9258 156.547 29.5039C156.188 30.0742 156.008 31.0703 156.008 32.4922V38H153.359V26.5859ZM177.57 37.7305C177.57 38.2695 177.551 38.7422 177.512 39.1484C177.48 39.5625 177.434 39.9258 177.371 40.2383C177.184 41.0977 176.816 41.8359 176.27 42.4531C175.238 43.6406 173.82 44.2344 172.016 44.2344C170.492 44.2344 169.238 43.8242 168.254 43.0039C167.238 42.1602 166.652 40.9922 166.496 39.5H169.145C169.246 40.0625 169.414 40.4961 169.648 40.8008C170.195 41.5117 170.992 41.8672 172.039 41.8672C173.969 41.8672 174.934 40.6836 174.934 38.3164V36.7227C173.887 37.793 172.68 38.3281 171.312 38.3281C169.758 38.3281 168.484 37.7656 167.492 36.6406C166.492 35.5 165.992 34.0742 165.992 32.3633C165.992 30.6992 166.457 29.2852 167.387 28.1211C168.387 26.8867 169.707 26.2695 171.348 26.2695C172.785 26.2695 173.98 26.8047 174.934 27.875V26.5859H177.57V37.7305ZM175.039 32.3164C175.039 31.207 174.742 30.3203 174.148 29.6562C173.547 28.9766 172.777 28.6367 171.84 28.6367C170.84 28.6367 170.051 29.0078 169.473 29.75C168.949 30.4141 168.688 31.2734 168.688 32.3281C168.688 33.3672 168.949 34.2188 169.473 34.8828C170.043 35.6094 170.832 35.9727 171.84 35.9727C172.848 35.9727 173.645 35.6055 174.23 34.8711C174.77 34.207 175.039 33.3555 175.039 32.3164ZM193.801 22.4727V38H191.07V22.4727H186.91V19.9062H197.949V22.4727H193.801ZM199.062 26.5859H201.699V27.6055C202.184 27.0977 202.613 26.75 202.988 26.5625C203.371 26.3672 203.824 26.2695 204.348 26.2695C205.043 26.2695 205.77 26.4961 206.527 26.9492L205.32 29.3633C204.82 29.0039 204.332 28.8242 203.855 28.8242C202.418 28.8242 201.699 29.9102 201.699 32.082V38H199.062V26.5859ZM218.27 32.9141H210.09C210.16 33.8516 210.465 34.5977 211.004 35.1523C211.543 35.6992 212.234 35.9727 213.078 35.9727C213.734 35.9727 214.277 35.8164 214.707 35.5039C215.129 35.1914 215.609 34.6133 216.148 33.7695L218.375 35.0117C218.031 35.5977 217.668 36.1016 217.285 36.5234C216.902 36.9375 216.492 37.2812 216.055 37.5547C215.617 37.8203 215.145 38.0156 214.637 38.1406C214.129 38.2656 213.578 38.3281 212.984 38.3281C211.281 38.3281 209.914 37.7812 208.883 36.6875C207.852 35.5859 207.336 34.125 207.336 32.3047C207.336 30.5 207.836 29.0391 208.836 27.9219C209.844 26.8203 211.18 26.2695 212.844 26.2695C214.523 26.2695 215.852 26.8047 216.828 27.875C217.797 28.9375 218.281 30.4102 218.281 32.293L218.27 32.9141ZM215.562 30.7578C215.195 29.3516 214.309 28.6484 212.902 28.6484C212.582 28.6484 212.281 28.6992 212 28.8008C211.719 28.8945 211.461 29.0352 211.227 29.2227C211 29.4023 210.805 29.6211 210.641 29.8789C210.477 30.1367 210.352 30.4297 210.266 30.7578H215.562ZM231.559 32.9141H223.379C223.449 33.8516 223.754 34.5977 224.293 35.1523C224.832 35.6992 225.523 35.9727 226.367 35.9727C227.023 35.9727 227.566 35.8164 227.996 35.5039C228.418 35.1914 228.898 34.6133 229.438 33.7695L231.664 35.0117C231.32 35.5977 230.957 36.1016 230.574 36.5234C230.191 36.9375 229.781 37.2812 229.344 37.5547C228.906 37.8203 228.434 38.0156 227.926 38.1406C227.418 38.2656 226.867 38.3281 226.273 38.3281C224.57 38.3281 223.203 37.7812 222.172 36.6875C221.141 35.5859 220.625 34.125 220.625 32.3047C220.625 30.5 221.125 29.0391 222.125 27.9219C223.133 26.8203 224.469 26.2695 226.133 26.2695C227.812 26.2695 229.141 26.8047 230.117 27.875C231.086 28.9375 231.57 30.4102 231.57 32.293L231.559 32.9141ZM228.852 30.7578C228.484 29.3516 227.598 28.6484 226.191 28.6484C225.871 28.6484 225.57 28.6992 225.289 28.8008C225.008 28.8945 224.75 29.0352 224.516 29.2227C224.289 29.4023 224.094 29.6211 223.93 29.8789C223.766 30.1367 223.641 30.4297 223.555 30.7578H228.852Z" fill="#A9C036"/>
  <path d="M28 56C43.464 56 56 43.464 56 28C56 12.536 43.464 0 28 0C12.536 0 0 12.536 0 28C0 43.464 12.536 56 28 56Z" fill="#A9C036"/>
  <path d="M25.9491 14.0005C25.7324 13.9954 25.5228 14.0292 25.3282 14.0859C24.9488 14.1964 24.5932 14.4191 24.369 14.79C23.3532 16.2393 23.1588 18.0253 23.7517 19.7522C24.3643 21.5368 25.8 22.7779 27.3478 23.6232L27.3826 23.6415L27.421 23.6598C27.8658 23.8542 28.3154 23.8341 28.7046 23.7208C29.0937 23.6074 29.4693 23.3871 29.6917 22.9984C30.4859 21.6103 30.8988 19.8436 30.2846 18.0544C29.672 16.2698 28.2328 15.0288 26.685 14.1834L26.6502 14.1651L26.6118 14.1468C26.3894 14.0496 26.1657 14.0056 25.9491 14.0005ZM25.8828 15.6129C27.1178 16.3169 28.1322 17.2215 28.572 18.5025C29.0147 19.792 28.7293 21.0961 28.136 22.1846C26.9081 21.4817 25.8987 20.58 25.4608 19.3041C24.9936 17.9434 25.162 16.6471 25.8828 15.6129H25.8828ZM34.7841 22.023C32.9123 22.023 30.9408 22.7206 29.5103 23.9707C28.9179 24.4884 28.4729 25.0562 28.1256 25.6532C27.7925 25.1144 27.3853 24.5979 26.8455 24.1262C25.415 22.8761 23.4435 22.1815 21.5717 22.1815C21.1054 22.1815 20.6243 22.3122 20.2393 22.6113C19.8543 22.9104 19.6045 23.3904 19.6045 23.8976C19.6045 25.5333 20.4329 27.127 21.8333 28.3508C22.862 29.2498 24.1003 29.8952 25.4991 30.1705V31.2739C23.8424 30.0739 21.8573 29.5151 19.7858 29.5151C19.3195 29.5151 18.8424 29.6629 18.5058 29.9571C18.1691 30.2513 18 30.6683 18 31.0757C18 32.9816 18.7868 35.0521 20.5811 36.6202C22.021 37.8784 23.7027 38.5653 25.4991 38.8026V39.6591C25.4991 40.3007 25.7596 40.9109 26.2525 41.3416C26.7454 41.7724 27.4437 42 28.1779 42C28.9121 42 29.6103 41.7724 30.1032 41.3416C30.5962 40.9109 30.8566 40.3007 30.8566 39.6591V38.7447C32.5166 38.4637 34.0723 37.7939 35.4154 36.6202C37.2097 35.0521 38 32.9816 38 31.0757C38 30.6683 37.8309 30.2513 37.4942 29.9571C37.1576 29.6629 36.6805 29.5151 36.2142 29.5151C34.2881 29.5151 32.4389 30.004 30.8566 31.0361V30.1705C32.2555 29.8952 33.4938 29.2498 34.5225 28.3508C35.9229 27.127 36.7513 25.5108 36.7513 23.7421C36.7513 23.2479 36.4961 22.8424 36.1549 22.5442C35.8137 22.246 35.3496 22.023 34.7841 22.023H34.7841ZM34.7841 23.5836C34.7543 23.5836 34.8316 23.5947 34.8922 23.6476C34.9528 23.7006 34.9655 23.7681 34.9655 23.7421C34.9655 25.0947 34.3596 26.2863 33.2598 27.2474C32.5169 27.8966 31.7152 28.3466 30.8392 28.5824C30.8007 27.9982 30.5564 27.4483 30.1032 27.0523C29.9386 26.9084 29.7459 26.7964 29.5417 26.6987C29.8369 26.1006 30.2144 25.5622 30.7729 25.0741C31.8426 24.1393 33.4414 23.5836 34.7841 23.5836H34.7841ZM21.5717 23.7421C22.9144 23.7421 24.5131 24.2948 25.5828 25.2296C26.102 25.6833 26.4676 26.1791 26.7548 26.7262C26.5731 26.8185 26.4014 26.9222 26.2525 27.0523C25.7994 27.4483 25.5551 27.9982 25.5166 28.5824C24.6405 28.3466 23.8389 27.8966 23.0959 27.2474C21.9962 26.2863 21.3903 25.0709 21.3903 23.8976C21.3903 23.7805 21.4084 23.7917 21.4252 23.7787C21.442 23.7656 21.5022 23.7421 21.5717 23.7421H21.5717ZM28.1779 27.9545C28.5152 27.9545 28.7085 28.0402 28.8406 28.1557C28.9727 28.2712 29.0708 28.4401 29.0708 28.7348V39.6591C29.0708 39.9539 28.9727 40.1228 28.8406 40.2382C28.7085 40.3537 28.5152 40.4394 28.1779 40.4394C27.8406 40.4394 27.6473 40.3537 27.5152 40.2382C27.383 40.1228 27.285 39.9539 27.285 39.6591V28.7348C27.285 28.5875 27.3102 28.4717 27.3512 28.3782C27.3923 28.2847 27.4491 28.2134 27.5152 28.1557C27.5576 28.1186 27.6213 28.0933 27.6791 28.0643L28.1779 27.9545ZM19.7858 31.0757C21.7304 31.0757 23.4242 31.6157 24.8678 32.8772L25.405 33.3435C25.4343 33.3698 25.4658 33.3942 25.4991 33.4167V37.2237C24.1608 37.0082 22.9666 36.498 21.8437 35.5168C20.4236 34.2757 19.7858 32.6033 19.7858 31.0757ZM36.2142 31.0757C36.2142 32.6033 35.573 34.2757 34.1528 35.5168C33.1293 36.4111 32.0513 36.9177 30.8566 37.1658V33.1149L31.1322 32.8772C32.5758 31.6157 34.2696 31.0757 36.2142 31.0757Z" fill="white"/>
</svg>