<svg width="260" height="136" viewBox="0 0 260 136" fill="none" xmlns="http://www.w3.org/2000/svg">
<path d="M3.23334 2.11133C3.23334 1.28291 2.56177 0.611331 1.73334 0.611328C0.904915 0.611326 0.23334 1.2829 0.233337 2.11132L3.23334 2.11133ZM145.113 54.533L146.07 53.378L146.07 53.378L145.113 54.533ZM181.983 122.04L182.94 120.885L181.983 122.04ZM0.233337 2.11132C0.233336 2.6531 0.239705 3.18862 0.252379 3.71796L3.25152 3.64614C3.23943 3.14117 3.23334 2.62959 3.23334 2.11133L0.233337 2.11132ZM0.403589 6.82044C0.481963 7.87168 0.587123 8.89681 0.718498 9.89643L3.69292 9.50551C3.56912 8.56355 3.46962 7.59444 3.39529 6.59739L0.403589 6.82044ZM1.22214 12.9807C1.42763 14.0254 1.66434 15.0399 1.93147 16.0247L4.82685 15.2394C4.57876 14.3247 4.35801 13.3792 4.16574 12.4017L1.22214 12.9807ZM2.86379 19.0052C3.22516 20.0183 3.622 20.9964 4.05315 21.9407L6.78212 20.6946C6.38726 19.8298 6.02255 18.9312 5.6894 17.9973L2.86379 19.0052ZM5.48088 24.7295C6.01269 25.6611 6.58154 26.5546 7.18581 27.4115L9.63752 25.6826C9.08838 24.9039 8.57079 24.091 8.0862 23.2422L5.48088 24.7295ZM9.1302 29.9049C9.82031 30.7072 10.5451 31.4716 11.3026 32.2L13.3819 30.0375C12.6913 29.3735 12.0318 28.6777 11.4045 27.9485L9.1302 29.9049ZM13.6764 34.2825C14.4925 34.9362 15.3385 35.5555 16.2123 36.1421L17.8844 33.6513C17.0779 33.1099 16.2999 32.5402 15.5518 31.9411L13.6764 34.2825ZM18.8961 37.795C19.7928 38.3013 20.7137 38.7788 21.657 39.2291L22.9494 36.5218C22.0651 36.0997 21.2054 35.6537 20.3712 35.1827L18.8961 37.795ZM24.5119 40.4838C25.4652 40.8689 26.438 41.2302 27.4288 41.5692L28.3999 38.7307C27.4578 38.4084 26.536 38.0659 25.6357 37.7022L24.5119 40.4838ZM30.3697 42.4964C31.3554 42.7821 32.3566 43.0485 33.3722 43.297L34.0852 40.383C33.1083 40.1439 32.1479 39.8883 31.205 39.615L30.3697 42.4964ZM36.3591 43.969C37.3569 44.1748 38.3669 44.3653 39.3881 44.5416L39.8985 41.5853C38.9075 41.4142 37.9294 41.2297 36.9651 41.0308L36.3591 43.969ZM42.4134 45.019C43.4169 45.1631 44.4299 45.295 45.4514 45.4158L45.8036 42.4365C44.8054 42.3185 43.8172 42.1898 42.8399 42.0494L42.4134 45.019ZM48.4949 45.7411C49.501 45.8377 50.5145 45.9248 51.5344 46.003L51.7639 43.0118C50.762 42.9349 49.7677 42.8495 48.7817 42.7548L48.4949 45.7411ZM54.5836 46.2106C55.5913 46.2709 56.6043 46.3236 57.6219 46.3696L57.7574 43.3726C56.7533 43.3273 55.7549 43.2753 54.7628 43.2159L54.5836 46.2106ZM60.6698 46.4875C61.6785 46.5203 62.6909 46.5473 63.7063 46.5693L63.7712 43.57C62.7658 43.5482 61.7643 43.5215 60.7673 43.4891L60.6698 46.4875ZM66.7492 46.6208C67.7587 46.6334 68.7705 46.6418 69.7837 46.6467L69.7984 43.6468C68.792 43.6419 67.7878 43.6335 66.7867 43.621L66.7492 46.6208ZM72.8204 46.6519C73.8306 46.6506 74.8418 46.6467 75.8529 46.6407L75.8351 43.6407C74.8279 43.6467 73.8216 43.6506 72.8166 43.6519L72.8204 46.6519ZM78.883 46.6174C79.894 46.608 80.9045 46.5974 81.9135 46.5861L81.88 43.5863C80.8722 43.5975 79.8638 43.6082 78.8553 43.6175L78.883 46.6174ZM84.9374 46.5511C85.9493 46.5393 86.9588 46.5275 87.9657 46.5165L87.933 43.5167C86.9247 43.5277 85.914 43.5395 84.9022 43.5513L84.9374 46.5511ZM90.9835 46.4866C91.9961 46.4778 93.005 46.4705 94.0096 46.4656L93.9948 43.4656C92.9858 43.4706 91.973 43.4779 90.9574 43.4867L90.9835 46.4866ZM97.0203 46.4583C98.034 46.4586 99.0423 46.4621 100.044 46.4695L100.067 43.4696C99.0566 43.4621 98.0412 43.4586 97.0214 43.4583L97.0203 46.4583ZM103.045 46.5044C104.06 46.5209 105.068 46.5422 106.067 46.5694L106.149 43.5705C105.138 43.543 104.119 43.5214 103.094 43.5048L103.045 46.5044ZM109.053 46.6694C110.069 46.7103 111.076 46.7583 112.072 46.8143L112.24 43.819C111.227 43.7621 110.205 43.7133 109.173 43.6718L109.053 46.6694ZM115.045 47.0084C116.058 47.0843 117.057 47.1698 118.043 47.266L118.334 44.2801C117.325 44.1817 116.303 44.0943 115.269 44.0168L115.045 47.0084ZM121.005 47.5932C122.005 47.7173 122.987 47.8541 123.952 48.0047L124.415 45.0406C123.417 44.8849 122.403 44.7438 121.375 44.6161L121.005 47.5932ZM126.889 48.5181C127.867 48.7086 128.824 48.9157 129.758 49.1407L130.46 46.2242C129.481 45.9881 128.481 45.7717 127.462 45.5734L126.889 48.5181ZM132.618 49.909C133.575 50.1949 134.503 50.503 135.4 50.8348L136.441 48.0212C135.48 47.6655 134.49 47.3372 133.476 47.0344L132.618 49.909ZM138.074 51.9383C138.969 52.3499 139.825 52.7903 140.641 53.2612L142.141 50.6627C141.239 50.1424 140.3 49.6601 139.327 49.2127L138.074 51.9383ZM143.045 54.8228C143.426 55.1023 143.797 55.3907 144.155 55.688L146.07 53.378C145.663 53.0415 145.246 52.7164 144.817 52.4025L143.045 54.8228ZM144.155 55.688C144.547 56.0128 144.928 56.3371 145.299 56.6611L147.274 54.4028C146.883 54.061 146.482 53.7195 146.07 53.378L144.155 55.688ZM147.46 58.6614C148.182 59.3694 148.857 60.0759 149.489 60.7812L151.723 58.7793C151.047 58.0251 150.328 57.2721 149.562 56.5201L147.46 58.6614ZM151.361 63.0237C151.973 63.8124 152.537 64.6003 153.058 65.3879L155.56 63.7334C154.998 62.8827 154.39 62.0332 153.731 61.1846L151.361 63.0237ZM154.572 67.8865C155.052 68.7534 155.487 69.6217 155.884 70.4919L158.613 69.2461C158.185 68.3085 157.715 67.3711 157.197 66.4339L154.572 67.8865ZM156.999 73.1909C157.344 74.1164 157.655 75.0459 157.939 75.9804L160.809 75.1075C160.509 74.1205 160.179 73.1322 159.81 72.143L156.999 73.1909ZM158.728 78.8332C158.971 79.7958 159.194 80.7638 159.407 81.7393L162.338 81.101C162.121 80.1021 161.89 79.1012 161.637 78.0996L158.728 78.8332ZM160.019 84.6856C160.213 85.6494 160.416 86.6826 160.613 87.6611L163.554 87.0691C163.351 86.0576 163.164 85.1078 162.96 84.0948L160.019 84.6856ZM161.237 90.6538C161.454 91.6471 161.685 92.648 161.937 93.6558L164.847 92.9256C164.603 91.9544 164.38 90.9844 164.168 90.0141L161.237 90.6538ZM162.753 96.6412C163.045 97.6216 163.365 98.6084 163.72 99.6016L166.545 98.5914C166.21 97.6537 165.907 96.7184 165.628 95.7847L162.753 96.6412ZM164.863 102.515C165.265 103.453 165.703 104.397 166.185 105.345L168.86 103.987C168.409 103.099 167.998 102.215 167.62 101.334L164.863 102.515ZM167.692 108.087C168.212 108.962 168.772 109.842 169.377 110.725L171.852 109.03C171.284 108.2 170.759 107.376 170.272 106.555L167.692 108.087ZM171.222 113.248C171.844 114.047 172.505 114.849 173.208 115.653L175.467 113.679C174.801 112.917 174.176 112.159 173.589 111.405L171.222 113.248ZM175.315 117.939C176.015 118.661 176.751 119.385 177.525 120.112L179.578 117.924C178.838 117.229 178.135 116.538 177.468 115.85L175.315 117.939ZM179.823 122.179C180.215 122.517 180.616 122.856 181.026 123.195L182.94 120.885C182.545 120.558 182.16 120.232 181.783 119.907L179.823 122.179ZM181.026 123.195C181.442 123.54 181.861 123.875 182.282 124.202L184.12 121.831C183.724 121.524 183.33 121.209 182.94 120.885L181.026 123.195ZM184.869 126.075C185.761 126.676 186.663 127.242 187.574 127.773L189.085 125.182C188.23 124.683 187.384 124.152 186.548 123.588L184.869 126.075ZM190.384 129.291C191.344 129.769 192.311 130.213 193.286 130.623L194.45 127.859C193.534 127.473 192.624 127.056 191.723 126.606L190.384 129.291ZM196.266 131.77C197.275 132.123 198.289 132.443 199.306 132.732L200.126 129.846C199.164 129.573 198.207 129.271 197.256 128.938L196.266 131.77ZM202.393 133.514C203.432 133.746 204.473 133.948 205.514 134.122L206.009 131.163C205.019 130.997 204.031 130.805 203.047 130.586L202.393 133.514ZM208.658 134.565C209.713 134.686 210.766 134.781 211.816 134.851L212.016 131.858C211.012 131.791 210.007 131.7 209.002 131.584L208.658 134.565ZM214.98 134.99C216.04 135.014 217.094 135.013 218.143 134.992L218.081 131.992C217.074 132.013 216.061 132.013 215.045 131.991L214.98 134.99ZM221.299 134.864C222.357 134.8 223.406 134.717 224.444 134.615L224.153 131.63C223.15 131.727 222.138 131.808 221.119 131.869L221.299 134.864ZM227.576 134.254C228.628 134.114 229.667 133.957 230.69 133.786L230.196 130.827C229.204 130.993 228.198 131.145 227.18 131.28L227.576 134.254ZM233.784 133.22C234.829 133.012 235.854 132.79 236.856 132.559L236.183 129.636C235.208 129.861 234.212 130.075 233.198 130.278L233.784 133.22ZM239.903 131.811C240.944 131.539 241.956 131.26 242.935 130.975L242.098 128.094C241.145 128.371 240.16 128.644 239.146 128.908L239.903 131.811ZM245.946 130.056C246.987 129.723 247.979 129.389 248.918 129.061L247.927 126.229C247.013 126.549 246.046 126.874 245.032 127.199L245.946 130.056ZM251.875 127.981C252.954 127.57 253.93 127.18 254.79 126.823L253.642 124.052C252.807 124.398 251.858 124.777 250.807 125.178L251.875 127.981ZM257.689 125.565C258.147 125.356 258.5 125.189 258.742 125.073C258.862 125.015 258.955 124.97 259.018 124.939C259.05 124.923 259.074 124.911 259.091 124.903C259.099 124.898 259.106 124.895 259.111 124.893C259.113 124.891 259.115 124.89 259.116 124.89C259.117 124.889 259.118 124.889 259.118 124.889C259.118 124.889 259.119 124.889 259.119 124.889C259.119 124.888 259.119 124.888 259.119 124.888C259.119 124.888 259.119 124.888 259.119 124.888C259.119 124.888 259.119 124.888 258.444 123.549C257.77 122.209 257.77 122.209 257.77 122.209C257.77 122.209 257.77 122.209 257.77 122.209C257.77 122.209 257.77 122.209 257.77 122.209C257.77 122.209 257.77 122.209 257.77 122.209C257.77 122.209 257.77 122.209 257.77 122.209C257.769 122.209 257.768 122.21 257.767 122.21C257.764 122.212 257.76 122.214 257.753 122.217C257.74 122.224 257.72 122.234 257.692 122.247C257.637 122.274 257.553 122.316 257.441 122.369C257.217 122.477 256.882 122.636 256.443 122.836L257.689 125.565Z" fill="#8CBF3F"/>
</svg>
