<svg width="75" height="65" viewBox="0 0 75 65" fill="none" xmlns="http://www.w3.org/2000/svg">
<path d="M74.6 48.8C74.6 50.8 73.9 52.4 72.5 53.7C70.4 55.7 66.1 56.9 61.3 57.3C61.4 56.6 61.5 55.6 61.5 54.6C61.5 47.3 59.1 39.2 55 33C53.2 30.3 51.2 28 49 26.3C51.6 24.6 54.2 23.6 56.6 23.6C64.1 23.4 74.6 33.1 74.6 48.8Z" fill=""/>
<path d="M66.2 9.5C66.2 11.6 65.5 13.4 64.4 15C64 15.4 63.8 15.7 63.5 16C61.8 17.8 59.3 18.9 56.7 18.9C54.6 18.9 52.7 18.3 51.1 17.1C51.8 15.1 52.3 13.2 52.3 11C52.3 8.1 51.4 5.2 50 2.8C51.7 1.1 54 0 56.7 0C61.9 0 66.2 4.2 66.2 9.5Z" fill=""/>
<path d="M56.8996 54.6C56.8996 55.7 56.6996 56.7 56.2996 57.5C55.8996 58.3 55.2996 59.2 54.7996 59.9C53.9996 60.6 52.9996 61.3 51.5996 61.9C44.2996 65 30.0996 65 22.6996 61.9C21.3996 61.4 20.2996 60.7 19.3996 59.9C18.6996 59.2 17.9996 58.4 17.6996 57.5C17.2996 56.6 17.0996 55.7 17.0996 54.6C17.0996 42.4 22.7996 33.4 29.0996 29.3C30.3996 28.3 31.7996 27.7 33.0996 27.2C34.2996 26.7 35.6996 26.5 36.8996 26.5C38.3996 26.5 39.7996 26.9 41.3996 27.5C42.6996 28 44.0996 28.7 45.2996 29.7C51.4996 34.1 56.8996 42.8 56.8996 54.6ZM47.7996 46.8C48.8996 44.6 48.8996 42.6 47.6996 40.7C46.4996 38.8 44.4996 37.6 41.9996 37.6C40.1996 37.6 38.3996 39.2 37.1996 40.4C35.9996 39.2 34.2996 37.7 32.4996 37.7C30.0996 37.7 28.0996 38.9 26.8996 40.7C26.3996 41.7 26.0996 42.7 26.0996 43.7C26.0996 44.7 26.3996 45.8 26.8996 46.9C27.8996 48.8 29.4996 50.5 30.5996 51.4C32.0996 52.9 36.0996 56.1 36.7996 56.8L37.2996 57.2L37.7996 56.8C38.6996 56 42.6996 52.7 43.9996 51.3C45.3996 50.1 46.8996 48.5 47.7996 46.8Z" fill=""/>
<path d="M36.8004 0.300049C42.5004 0.300049 47.2004 4.90005 47.2004 10.7C47.2004 16.4 42.5004 21.1 36.8004 21.1C31.0004 21.1 26.4004 16.4 26.4004 10.7C26.4004 5.10005 31.1004 0.400049 36.8004 0.300049Z" fill=""/>
<path d="M24.1002 2.40002C22.4002 4.80002 21.4002 7.80002 21.4002 11.1C21.4002 13.4 21.9002 15.6 22.7002 17.7C21.4002 18.7 19.6002 19.2 17.8002 19.2C15.1002 19.2 12.7002 18.1 10.9002 16.3C10.7002 15.9 10.4002 15.6 10.0002 15.2C8.8002 13.6 8.2002 11.8 8.2002 9.70002C8.2002 4.40002 12.5002 0.200018 17.7002 0.200018C20.3002 0.100018 22.4002 0.900019 24.1002 2.40002Z" fill=""/>
<path d="M17.9 23.3C20.1 23.3 22.7 24.2 25 25.8C22.6 27.6 20.5 30.0001 18.5 32.9001C14.5 39.1001 12 47.2001 12 54.5001C12 55.5001 12.1 56.3001 12.4 57.2001C8 56.7001 4.1 55.5001 2.1 53.6001C0.6 52.3001 0 50.7001 0 48.7001C0 33.1 10.4 23.4 17.9 23.3Z" fill=""/>
</svg>
