<svg width="24" height="24" viewBox="0 0 24 24" fill="none" xmlns="http://www.w3.org/2000/svg">
<path d="M8.00398 3.03711C9.48419 3.03716 10.9104 3.59321 12 4.59511C13.0897 3.59338 14.5158 3.03735 15.996 3.03711C16.7785 3.03771 17.5532 3.19298 18.2756 3.49399C18.9979 3.79501 19.6536 4.23583 20.205 4.79111C22.561 7.15811 22.561 10.8531 20.207 13.2071L12.792 20.6221C12.7011 20.7475 12.5822 20.8498 12.4446 20.9208C12.3071 20.9918 12.1548 21.0296 12 21.0311C11.623 21.0311 11.295 20.8381 11.125 20.5391L3.79298 13.2071C1.43898 10.8541 1.43798 7.15811 3.79098 4.79511C4.34265 4.2388 4.99888 3.79709 5.72192 3.49538C6.44495 3.19367 7.22052 3.03793 8.00398 3.03711Z" fill="#C74149"/>
</svg>
