<?xml version="1.0" standalone="no"?>
<!DOCTYPE svg PUBLIC "-//W3C//DTD SVG 20010904//EN"
 "http://www.w3.org/TR/2001/REC-SVG-20010904/DTD/svg10.dtd">
<svg version="1.0" xmlns="http://www.w3.org/2000/svg"
 width="1456.000000pt" height="1456.000000pt" viewBox="0 0 1456.000000 1456.000000"
 preserveAspectRatio="xMidYMid meet">
<metadata>
Created by potrace 1.11, written by Peter Selinger 2001-2013
</metadata>
<g transform="translate(0.000000,1456.000000) scale(0.100000,-0.100000)"
fill="#000000" stroke="none">
<path d="M5320 12413 c-89 -9 -327 -46 -445 -69 -1574 -308 -2923 -1339 -3633
-2777 -544 -1101 -680 -2344 -386 -3532 189 -760 543 -1458 1054 -2075 133
-161 479 -507 640 -640 765 -634 1639 -1021 2616 -1160 76 -11 156 -20 177
-20 l37 0 0 5140 c0 4106 -3 5140 -12 5138 -7 0 -29 -3 -48 -5z m-2449 -3139
c73 -22 160 -67 204 -105 l36 -32 27 21 c139 112 319 160 481 129 349 -67 559
-420 453 -762 -90 -291 -385 -598 -818 -853 -67 -40 -127 -72 -134 -72 -17 0
-190 106 -300 183 -309 217 -534 451 -625 649 -37 82 -65 202 -65 282 1 279
208 527 481 575 69 13 191 5 260 -15z m-851 -1059 c58 -30 103 -82 133 -155
31 -79 31 -319 -1 -464 -12 -55 -28 -103 -35 -108 -30 -19 -202 -51 -300 -56
-136 -6 -224 9 -302 52 -135 74 -182 232 -108 368 34 62 88 104 165 125 54 15
57 18 63 54 11 65 64 140 124 176 29 17 65 34 80 36 50 9 133 -4 181 -28z
m2421 19 c79 -24 152 -98 175 -181 l17 -60 59 -17 c81 -22 159 -98 182 -176
20 -67 20 -93 0 -161 -22 -72 -96 -147 -179 -180 -54 -21 -74 -24 -215 -23
-129 1 -171 5 -250 25 l-95 24 -23 90 c-27 110 -41 277 -31 373 15 141 93 254
198 286 61 19 97 19 162 0z m-1323 -804 c19 0 72 21 128 50 53 28 98 50 100
50 2 0 4 -151 4 -335 0 -184 3 -335 8 -335 4 0 147 140 317 310 170 171 313
310 316 310 4 0 12 -13 19 -30 7 -16 25 -35 41 -42 16 -7 29 -15 29 -18 0 -3
-41 -46 -90 -95 l-90 -90 241 -5 242 -5 12 -47 c6 -25 19 -58 28 -72 9 -14 17
-28 17 -30 0 -3 -57 -7 -126 -8 l-125 -3 105 -112 106 -111 -36 -23 -36 -22
-137 137 -136 136 -165 -1 -165 -1 -187 -198 -188 -199 0 -664 c0 -753 8 -684
-86 -713 -100 -30 -296 -12 -345 32 -18 16 -19 41 -19 665 l0 649 -202 215
-203 215 -165 0 -165 0 -122 -129 -123 -129 -42 16 c-24 9 -45 17 -47 19 -3 2
41 50 97 106 56 56 102 106 102 110 0 4 -48 7 -106 7 -81 0 -105 3 -101 13 17
39 47 114 51 130 5 15 25 17 228 17 l223 0 -88 88 c-48 48 -87 90 -87 94 0 3
13 9 30 13 16 4 41 20 55 37 l27 31 311 -311 c172 -172 315 -312 320 -312 4 0
7 155 7 345 l0 346 93 -51 c56 -30 106 -50 125 -50z m-1661 -110 c42 -19 43
-18 92 2 45 19 54 20 92 9 83 -25 130 -105 108 -185 -20 -75 -107 -168 -217
-232 -32 -19 -33 -19 -76 4 -61 33 -151 115 -181 165 -55 95 -33 190 55 235
54 27 73 27 127 2z m3262 0 c39 -18 46 -19 66 -6 64 42 162 20 203 -46 27 -43
29 -115 5 -166 -22 -47 -127 -150 -187 -182 -45 -24 -46 -24 -79 -7 -57 31
-146 105 -177 149 -77 106 -59 212 44 259 52 24 71 23 125 -1z m-3086 -609
c36 -19 38 -19 75 1 90 47 205 -15 219 -119 11 -82 -55 -177 -184 -263 l-74
-50 -41 23 c-64 36 -174 142 -197 192 -33 70 -25 132 22 184 47 51 118 64 180
32z m2919 0 c36 -20 36 -20 74 0 101 52 219 -20 218 -134 0 -61 -19 -101 -77
-164 -42 -45 -140 -118 -168 -125 -22 -5 -102 46 -166 106 -116 107 -135 215
-51 293 49 46 112 54 170 24z"/>
<path d="M7030 10140 l0 -950 174 0 174 0 4 398 c5 363 7 404 26 474 37 137
87 209 174 252 71 35 171 36 243 2 60 -28 77 -46 107 -111 23 -50 23 -54 26
-533 l3 -482 177 2 177 3 -1 500 c-1 536 -4 577 -54 676 -45 87 -134 159 -240
195 -85 29 -312 27 -400 -4 -97 -33 -126 -55 -176 -132 -25 -38 -49 -70 -54
-70 -6 0 -10 141 -10 365 l0 365 -175 0 -175 0 0 -950z"/>
<path d="M6170 10715 l0 -165 -100 0 -100 0 0 -120 0 -120 100 0 100 0 0 -435
c0 -283 4 -452 11 -487 24 -111 79 -175 177 -205 45 -14 91 -18 222 -18 91 1
173 4 183 8 15 6 17 21 17 121 l0 114 -89 4 c-97 3 -117 13 -150 73 -14 26
-16 81 -19 427 l-3 397 143 3 143 3 0 115 0 115 -142 3 -143 3 0 164 0 165
-175 0 -175 0 0 -165z"/>
<path d="M9045 10571 c-226 -56 -395 -216 -472 -446 -25 -75 -27 -92 -28 -260
0 -159 3 -189 23 -260 72 -250 259 -408 528 -446 90 -13 224 -6 310 16 150 38
302 145 370 260 26 45 74 165 74 186 0 6 -66 8 -176 7 l-176 -3 -19 -51 c-24
-63 -77 -120 -138 -148 -59 -26 -197 -28 -253 -3 -55 25 -106 74 -134 128 -28
57 -54 149 -54 196 l0 33 486 0 487 0 -6 143 c-6 159 -21 226 -74 332 -82 165
-211 272 -378 315 -100 26 -269 26 -370 1z m266 -243 c91 -27 171 -140 185
-262 l7 -56 -297 0 -296 0 0 24 c0 38 34 137 63 183 31 49 82 90 134 109 47
16 153 18 204 2z"/>
<path d="M7842 8399 c-134 -67 -131 -279 5 -335 52 -22 151 -18 198 9 94 53
116 205 42 286 -56 60 -167 78 -245 40z"/>
<path d="M9995 8401 c-45 -20 -92 -70 -101 -107 -4 -14 -4 -51 -2 -83 7 -104
74 -161 189 -161 101 0 166 46 190 133 42 158 -122 288 -276 218z"/>
<path d="M6552 7939 c-190 -29 -370 -154 -455 -316 -60 -115 -79 -197 -84
-374 -5 -136 -3 -166 16 -240 60 -239 210 -398 431 -456 88 -23 263 -22 350 1
108 29 153 59 206 140 57 84 58 82 52 -84 -5 -128 -21 -180 -73 -245 -64 -80
-191 -123 -328 -112 -145 12 -233 67 -267 167 l-19 55 -168 0 -168 0 3 -43 c2
-24 12 -68 23 -99 70 -206 239 -315 528 -343 350 -33 643 91 754 320 74 151
71 116 75 898 l3 702 -178 -2 -178 -3 -5 -80 -5 -80 -43 66 c-45 71 -84 96
-183 118 -69 16 -218 21 -287 10z m301 -266 c73 -26 157 -110 187 -188 19 -50
24 -84 28 -200 2 -80 -1 -166 -7 -200 -15 -80 -63 -176 -108 -216 -155 -135
-400 -105 -501 62 -55 91 -76 177 -76 309 0 173 34 280 114 360 94 94 228 121
363 73z"/>
<path d="M11280 7940 c-64 -10 -150 -40 -197 -70 -18 -10 -53 -51 -79 -90 -26
-38 -51 -70 -55 -70 -5 0 -9 45 -9 100 l0 100 -175 0 -175 0 0 -685 0 -685
174 0 174 0 5 393 c4 309 8 407 20 460 33 139 94 234 182 280 53 27 161 29
227 4 55 -21 111 -80 129 -134 10 -27 15 -170 19 -518 l5 -480 175 0 175 0 0
505 c-1 446 -3 512 -18 570 -44 164 -134 256 -295 304 -67 19 -209 28 -282 16z"/>
<path d="M12642 7939 c-233 -36 -434 -207 -502 -428 -33 -104 -43 -197 -37
-341 3 -101 10 -153 27 -205 66 -211 218 -360 420 -411 89 -23 264 -23 350 0
108 29 153 59 205 139 26 38 50 65 54 59 3 -5 3 -68 0 -139 -7 -142 -22 -192
-80 -257 -64 -74 -190 -114 -322 -103 -145 12 -233 67 -267 167 l-19 55 -162
3 c-89 1 -166 -1 -170 -5 -12 -12 17 -137 45 -200 35 -75 133 -171 216 -211
131 -62 314 -89 493 -72 135 13 204 31 307 82 149 72 251 199 297 371 15 55
17 145 20 765 l4 702 -176 0 -175 0 0 -67 c0 -101 -10 -105 -59 -30 -45 70
-84 94 -185 117 -70 15 -213 20 -284 9z m301 -265 c68 -23 148 -99 181 -173
33 -75 47 -208 35 -341 -16 -189 -75 -287 -209 -348 -44 -21 -71 -26 -135 -26
-71 -1 -88 3 -147 32 -95 47 -150 123 -185 255 -22 83 -21 260 1 347 58 221
248 327 459 254z"/>
<path d="M7760 7225 l0 -685 175 0 175 0 0 685 0 685 -175 0 -175 0 0 -685z"/>
<path d="M8290 7901 c0 -10 490 -1274 515 -1329 l15 -32 197 2 198 3 257 665
c142 366 261 673 264 683 5 16 -7 17 -186 15 l-192 -3 -163 -533 c-90 -294
-166 -536 -169 -540 -3 -3 -8 -3 -9 -1 -4 4 -311 985 -329 1047 l-9 32 -194 0
c-111 0 -195 -4 -195 -9z"/>
<path d="M9905 7898 c-3 -7 -4 -314 -3 -683 l3 -670 178 -3 177 -2 0 685 0
685 -175 0 c-131 0 -177 -3 -180 -12z"/>
<path d="M6170 4986 c0 -140 -2 -165 -16 -170 -9 -3 -54 -6 -100 -6 l-84 0 0
-115 0 -114 98 -3 97 -3 5 -460 c4 -302 10 -471 17 -492 49 -140 123 -183 326
-191 66 -2 152 -1 193 3 l74 7 0 112 0 113 -80 6 c-97 8 -136 26 -158 75 -15
33 -17 85 -17 432 l0 395 140 5 140 5 0 110 0 110 -120 2 c-183 4 -165 -15
-165 178 l0 165 -175 0 -175 0 0 -164z"/>
<path d="M7644 4849 c-22 -5 -65 -24 -94 -42 -45 -27 -61 -46 -101 -117 -27
-47 -53 -86 -59 -88 -6 -2 -10 37 -10 107 l0 111 -175 0 -175 0 2 -682 3 -683
170 0 170 0 6 385 c7 418 12 463 66 562 53 98 146 148 288 157 l90 6 3 134 c1
75 -2 139 -7 144 -13 13 -129 18 -177 6z"/>
<path d="M8445 4844 c-233 -50 -426 -229 -494 -459 -47 -160 -46 -376 4 -533
91 -285 341 -446 669 -429 129 7 203 25 301 73 149 73 259 211 301 379 l6 25
-177 -2 -177 -3 -18 -48 c-27 -69 -64 -113 -123 -145 -46 -24 -63 -27 -147
-27 -80 0 -102 4 -139 23 -57 31 -97 75 -127 139 -25 51 -57 191 -48 205 3 4
224 8 491 8 l486 0 -6 138 c-8 226 -63 367 -193 499 -115 118 -260 173 -449
172 -49 0 -121 -7 -160 -15z m279 -264 c30 -14 61 -40 82 -69 36 -48 74 -153
74 -202 l0 -29 -295 0 -295 0 0 25 c0 40 39 144 71 191 30 44 76 78 138 101
53 20 167 11 225 -17z"/>
<path d="M9940 4844 c-186 -39 -339 -148 -433 -305 -80 -135 -117 -329 -97
-506 22 -203 71 -316 185 -430 121 -121 284 -183 480 -183 283 0 513 135 604
355 16 39 31 81 33 95 l3 25 -174 0 -173 0 -18 -48 c-26 -69 -60 -108 -121
-142 -49 -27 -62 -30 -149 -30 -88 0 -99 2 -150 31 -35 20 -66 48 -87 79 -35
51 -71 154 -75 220 l-3 40 485 5 485 5 3 90 c11 355 -183 637 -483 700 -87 18
-229 18 -315 -1z m275 -264 c75 -36 136 -137 151 -249 l7 -51 -296 0 c-163 0
-298 3 -300 8 -8 13 22 115 50 171 33 64 91 116 153 136 65 21 175 14 235 -15z"/>
</g>
</svg>
