<svg width="25" height="24" viewBox="0 0 25 24" fill="none" xmlns="http://www.w3.org/2000/svg">
<path d="M10 11.9H9.9V12V14V14.1H10H24H24.1V14V12V11.9H24H10Z" fill="black" stroke="#0D0D0D" stroke-width="0.2"/>
<path d="M10 4.9H9.9V5V7V7.1H10H24H24.1V7V5V4.9H24H10Z" fill="black" stroke="#0D0D0D" stroke-width="0.2"/>
<path d="M10 18.9H9.9V19V21V21.1H10H24H24.1V21V19V18.9H24H10Z" fill="black" stroke="#0D0D0D" stroke-width="0.2"/>
<path d="M3.13699 12.1135L1.88611 10.7783L1.81296 10.7002L1.74 10.7785L0.926867 11.6504L0.863105 11.7188L0.927037 11.787L3.06525 14.0684L3.13829 14.1463L3.21125 14.0683L7.07304 9.93899L7.13692 9.87069L7.07304 9.80238L6.25876 8.93169L6.18572 8.8536L6.11268 8.93169L3.13699 12.1135Z" fill="black" stroke="#0D0D0D" stroke-width="0.2"/>
<path d="M3.13699 5.11352L1.88611 3.77831L1.81296 3.70023L1.74 3.77847L0.926867 4.65039L0.863105 4.71877L0.927037 4.78698L3.06525 7.06838L3.13829 7.14632L3.21125 7.06831L7.07304 2.93899L7.13692 2.87069L7.07304 2.80238L6.25876 1.93169L6.18572 1.8536L6.11268 1.93169L3.13699 5.11352Z" fill="black" stroke="#0D0D0D" stroke-width="0.2"/>
<path d="M3.13699 19.1135L1.88611 17.7783L1.81296 17.7002L1.74 17.7785L0.926867 18.6504L0.863105 18.7188L0.927037 18.787L3.06525 21.0684L3.13829 21.1463L3.21125 21.0683L7.07304 16.939L7.13692 16.8707L7.07304 16.8024L6.25876 15.9317L6.18572 15.8536L6.11268 15.9317L3.13699 19.1135Z" fill="black" stroke="#0D0D0D" stroke-width="0.2"/>
</svg>
