<?xml version="1.0" standalone="no"?>
<!DOCTYPE svg PUBLIC "-//W3C//DTD SVG 20010904//EN"
 "http://www.w3.org/TR/2001/REC-SVG-20010904/DTD/svg10.dtd">
<svg version="1.0" xmlns="http://www.w3.org/2000/svg"
 width="642.000000pt" height="642.000000pt" viewBox="0 0 642.000000 642.000000"
 preserveAspectRatio="xMidYMid meet">
<metadata>
Created by potrace 1.11, written by Peter Selinger 2001-2013
</metadata>
<g transform="translate(0.000000,642.000000) scale(0.100000,-0.100000)"
fill="#000000" stroke="none">
<path d="M2215 5768 c-235 -37 -508 -116 -680 -199 -38 -18 -72 -34 -75 -34
-25 -2 -226 -119 -330 -192 -41 -30 -102 -72 -134 -95 -62 -43 -362 -336 -408
-398 -28 -38 -83 -109 -96 -125 -27 -33 -112 -164 -112 -173 0 -6 -4 -12 -8
-14 -13 -5 -117 -208 -164 -318 -83 -196 -157 -454 -174 -610 -2 -25 -7 -56
-9 -70 -25 -132 -25 -524 0 -660 2 -14 6 -50 9 -80 3 -30 10 -70 15 -88 5 -18
10 -35 10 -37 5 -44 16 -87 22 -91 5 -3 7 -9 5 -13 -3 -4 6 -46 21 -92 14 -46
26 -88 28 -94 1 -5 7 -21 12 -35 6 -14 27 -65 46 -115 39 -99 77 -176 92 -187
6 -4 7 -8 2 -8 -7 0 33 -78 96 -185 36 -61 127 -189 139 -193 4 -2 8 -8 8 -14
0 -17 117 -154 226 -262 146 -147 262 -240 447 -361 102 -66 310 -172 412
-210 39 -14 79 -30 90 -35 24 -11 109 -39 150 -50 17 -5 57 -16 90 -25 33 -9
69 -18 80 -21 120 -24 146 -28 240 -39 33 -4 64 -8 70 -9 6 0 9 944 10 2569
l0 2570 -40 0 c-22 1 -62 -3 -90 -7z"/>
<path d="M3162 4637 l0 -482 89 0 c48 1 90 3 93 6 2 2 6 103 8 224 3 190 6
225 22 258 22 44 69 84 108 91 42 7 97 -15 121 -48 20 -29 21 -41 22 -272 0
-134 4 -246 8 -250 10 -11 159 -13 172 -3 12 9 12 451 0 524 -5 28 -9 53 -9
57 -1 4 -7 13 -13 20 -7 6 -13 17 -13 24 0 12 -64 58 -95 67 -118 36 -238 16
-294 -50 l-31 -36 0 176 0 177 -94 0 -95 0 1 -483z"/>
<path d="M2742 5012 c-8 -2 -12 -32 -12 -83 0 -86 2 -84 -67 -80 l-33 2 0 -66
c0 -62 1 -65 25 -65 14 0 36 0 50 0 l25 0 1 -213 c2 -250 1 -242 24 -291 29
-62 74 -73 258 -67 l37 1 0 63 0 64 -47 2 c-78 2 -78 3 -80 236 l-2 205 70 0
69 0 0 63 0 63 -67 0 -68 1 -2 78 c-1 43 -5 80 -8 84 -7 6 -155 9 -173 3z"/>
<path d="M4289 4876 c-2 -3 -32 -7 -67 -9 -135 -10 -235 -90 -285 -228 -40
-112 -24 -273 36 -362 25 -36 64 -77 74 -77 3 0 14 -6 22 -14 60 -51 244 -58
341 -13 30 14 70 39 87 55 31 28 83 122 83 150 0 9 -25 12 -92 12 l-93 -1 -18
-39 c-45 -96 -189 -97 -244 -2 -11 21 -23 53 -25 72 l-3 35 240 0 240 -1 5 31
c9 51 -8 152 -34 208 -44 92 -141 168 -219 171 -18 0 -35 4 -38 9 -3 4 -7 5
-10 3z m54 -175 c27 -26 60 -99 51 -112 -5 -8 -284 -8 -284 0 0 22 23 81 30
81 6 0 10 6 10 13 0 7 10 18 22 26 58 36 129 33 171 -8z"/>
<path d="M3560 3768 c-34 -23 -58 -82 -39 -93 4 -3 6 -11 3 -19 -6 -17 42 -64
69 -68 61 -9 112 18 125 67 27 96 -75 169 -158 113z"/>
<path d="M4645 3777 c-41 -22 -52 -42 -52 -88 -1 -49 10 -69 46 -88 90 -48
188 41 144 131 -22 45 -95 69 -138 45z"/>
<path d="M2897 3538 c-162 -34 -249 -170 -243 -378 4 -153 56 -241 176 -298
75 -35 190 -37 267 -3 29 13 55 31 58 41 3 10 12 23 19 29 10 8 12 1 10 -37
-6 -135 -59 -188 -185 -186 -80 1 -114 19 -137 73 l-16 37 -89 1 -89 1 5 -37
c17 -145 133 -221 335 -219 182 2 292 66 340 198 20 57 21 77 22 414 l0 354
-57 4 c-32 1 -74 1 -93 -2 -32 -5 -35 -8 -34 -39 l1 -33 -23 30 c-14 17 -41
36 -62 43 -44 15 -152 19 -205 7z m211 -155 c61 -45 77 -90 75 -206 -2 -109
-55 -192 -130 -204 -103 -16 -161 22 -194 127 -29 91 -7 220 45 269 54 50 147
57 204 14z"/>
<path d="M5287 3544 c-3 -4 -43 -12 -64 -13 -7 -1 -31 -19 -53 -41 l-40 -40 0
39 c0 39 -1 40 -37 43 -21 2 -64 1 -95 0 l-58 -4 0 -344 0 -344 28 -1 c49 -2
155 1 158 3 1 2 4 102 6 223 1 121 7 227 13 235 5 8 10 22 12 30 1 8 18 30 37
48 31 28 43 32 88 32 59 -1 90 -19 109 -66 8 -19 13 -115 15 -263 2 -129 5
-235 7 -237 6 -7 167 -8 173 -1 9 9 7 488 -2 530 -17 79 -69 139 -138 159 -40
11 -151 20 -159 12z"/>
<path d="M5934 3535 c-79 -18 -120 -48 -193 -141 -23 -29 -47 -143 -46 -219 1
-44 4 -87 8 -95 3 -8 8 -26 11 -40 13 -63 115 -175 168 -187 7 -1 30 -6 50
-11 45 -12 129 -8 184 7 39 10 94 53 94 72 0 5 5 9 11 9 17 0 3 -106 -19 -149
-28 -54 -86 -80 -167 -75 -77 3 -118 27 -136 78 l-12 33 -86 -1 -86 -1 2 -37
c4 -75 64 -153 142 -185 54 -23 69 -25 171 -28 107 -4 180 12 248 51 49 29
108 104 116 149 4 16 9 41 12 55 6 29 8 700 1 706 -6 6 -164 7 -175 1 -4 -3
-7 -20 -6 -38 l2 -33 -24 32 c-13 17 -41 36 -62 43 -50 17 -146 19 -208 4z
m179 -133 c26 -3 71 -43 90 -82 26 -53 30 -183 7 -240 -40 -101 -150 -143
-236 -89 -105 64 -118 293 -22 381 16 16 39 30 51 33 51 10 63 11 82 4 11 -3
23 -7 28 -7z"/>
<path d="M3863 3532 c-40 -2 -73 -6 -73 -10 0 -6 47 -131 70 -187 5 -11 29
-72 54 -135 24 -63 50 -128 57 -145 7 -16 13 -32 13 -35 2 -9 28 -74 47 -117
11 -24 19 -47 19 -53 0 -11 15 -12 134 -11 84 1 86 2 90 23 3 13 9 29 49 128
12 30 21 58 19 63 -1 4 3 7 10 7 6 0 9 3 5 6 -5 5 26 96 58 169 28 65 65 166
65 179 0 7 7 19 15 26 9 7 14 15 11 17 -2 3 2 20 10 39 l14 34 -77 1 c-119 2
-131 -1 -137 -32 -6 -30 -19 -74 -25 -84 -3 -5 -6 -15 -7 -21 -1 -5 -18 -64
-39 -130 -21 -65 -38 -123 -39 -129 -1 -5 -4 -14 -7 -20 -3 -5 -12 -31 -19
-57 -7 -27 -16 -48 -19 -48 -4 0 -13 24 -20 53 -8 28 -16 57 -20 62 -3 6 -6
15 -7 20 -1 6 -25 84 -54 175 -49 158 -58 187 -59 201 -1 10 -57 14 -138 11z"/>
<path d="M3526 3188 c1 -189 2 -345 3 -348 2 -8 171 -4 179 4 4 4 7 160 7 347
l0 339 -95 0 -96 0 2 -342z"/>
<path d="M4601 3513 c1 -10 0 -22 -1 -28 -1 -5 -1 -113 0 -240 1 -234 1 -310
-1 -323 -1 -4 -1 -25 0 -47 l1 -40 62 2 c35 1 77 2 93 2 l30 1 -1 337 c-1 186
-2 341 -3 346 -1 4 -42 7 -92 7 -80 0 -90 -2 -88 -17z"/>
<path d="M2753 2152 c-22 -3 -23 -8 -23 -86 l0 -82 -47 0 -48 1 -3 -62 c-3
-63 -3 -63 25 -64 15 -1 38 0 51 1 l22 1 1 -213 c1 -117 3 -222 4 -233 9 -81
54 -122 143 -132 53 -5 54 -5 102 1 19 2 43 4 53 5 16 1 18 9 15 63 l-3 62
-35 1 c-65 3 -78 12 -84 58 -3 23 -4 119 -3 212 l2 170 50 2 c28 0 58 2 68 2
14 1 17 11 17 64 l0 62 -67 0 -68 0 -2 78 c-1 43 -4 81 -7 84 -6 7 -128 10
-163 5z"/>
<path d="M3457 1995 c-48 -16 -64 -30 -87 -74 l-19 -36 -1 53 0 52 -94 0 -95
0 2 -347 2 -348 90 0 90 0 5 215 c5 204 6 217 29 257 27 47 94 83 156 83 l36
0 -3 76 -3 77 -36 2 c-19 2 -52 -3 -72 -10z"/>
<path d="M3843 1994 c-85 -25 -167 -99 -207 -187 -23 -49 -28 -76 -30 -163 -3
-85 14 -158 50 -219 37 -65 131 -132 193 -138 17 -2 33 -6 36 -8 2 -3 43 -2
90 3 90 8 162 35 209 80 33 32 72 97 80 135 l7 31 -95 0 c-53 0 -97 -4 -97 -9
-1 -5 -3 -13 -4 -19 -1 -5 -3 -14 -4 -19 0 -6 -16 -21 -34 -35 -38 -29 -107
-40 -146 -23 -23 10 -80 63 -82 77 0 3 -2 14 -5 25 -14 65 -33 60 224 62 128
1 237 5 243 9 21 12 5 165 -23 226 -56 122 -145 180 -281 183 -45 1 -101 -4
-124 -11z m190 -153 c21 -18 37 -44 42 -69 2 -9 6 -25 10 -34 7 -17 -4 -18
-139 -18 -89 0 -146 4 -146 10 0 24 33 89 56 109 48 42 130 43 177 2z"/>
<path d="M4583 1991 c-147 -50 -222 -157 -231 -328 -2 -51 -1 -100 3 -110 5
-10 7 -26 6 -35 -3 -24 42 -108 78 -145 17 -18 54 -45 83 -60 49 -26 62 -28
163 -28 98 0 116 3 165 26 70 34 104 67 135 132 42 86 40 89 -67 85 -53 -2
-93 -7 -94 -13 -2 -28 -31 -66 -62 -81 -105 -49 -195 0 -218 120 l-6 37 237
-1 c130 -1 239 1 242 4 9 9 8 136 -1 136 -5 0 -7 3 -4 6 10 10 -13 78 -45 131
-32 55 -88 101 -147 123 -57 20 -178 21 -237 1z m184 -143 c23 -11 46 -52 58
-100 l7 -28 -140 0 c-78 0 -143 4 -146 9 -12 18 45 109 77 124 58 27 83 26
144 -5z"/>
</g>
</svg>
